<?xml version="1.0" encoding="UTF-8" standalone="no"?>
<svg
   width="108"
   height="108"
   viewBox="0 0 138.24 138.24"
   class="icon"
   version="1.1"
   id="svg4"
   sodipodi:docname="pc2sms-foreground.svg"
   inkscape:version="1.4 (86a8ad7, 2024-10-11)"
   xmlns:inkscape="http://www.inkscape.org/namespaces/inkscape"
   xmlns:sodipodi="http://sodipodi.sourceforge.net/DTD/sodipodi-0.dtd"
   xmlns="http://www.w3.org/2000/svg"
   xmlns:svg="http://www.w3.org/2000/svg">
  <defs
     id="defs4" />
  <sodipodi:namedview
     id="namedview4"
     pagecolor="#ffffff"
     bordercolor="#000000"
     borderopacity="0.25"
     inkscape:showpageshadow="2"
     inkscape:pageopacity="0.0"
     inkscape:pagecheckerboard="0"
     inkscape:deskcolor="#d1d1d1"
     inkscape:zoom="4.04"
     inkscape:cx="29.084158"
     inkscape:cy="68.811881"
     inkscape:window-width="1920"
     inkscape:window-height="1010"
     inkscape:window-x="-6"
     inkscape:window-y="-6"
     inkscape:window-maximized="1"
     inkscape:current-layer="layer2" />
  <g
     inkscape:groupmode="layer"
     id="layer2"
     inkscape:label="Layer 1">
    <path
       d="m 18.680037,114.94141 c 2.721146,0 4.535243,-1.8825 4.535243,-4.70626 V 63.172521 h 81.63438 v 47.062629 c 0,2.82376 1.8141,4.70626 4.53524,4.70626 2.72115,0 4.53525,-1.8825 4.53525,-4.70626 V 58.466258 c 0,-2.823758 -1.8141,-4.706263 -4.53525,-4.706263 H 18.680037 c -2.721146,0 -4.535243,1.882505 -4.535243,4.706263 v 51.768892 c 0,2.82376 1.814097,4.70626 4.535243,4.70626 z"
       id="path1-0"
       style="fill:#000000;fill-opacity:1;stroke-width:4.61952;stroke-dasharray:none" />
    <path
       d="m 127.07235,131.195 -9.07049,-18.82505 c -0.90704,-1.88251 -2.26762,-2.82376 -4.08171,-2.82376 H 14.144794 c -1.814098,0 -3.17467,0.94125 -4.081719,2.82376 L 0.99258903,131.195 c -0.9070486,1.41187 -0.4535243,3.29438 0,4.70626 0.45352427,1.41188 2.72114627,1.8825 4.08171827,1.8825 H 122.99063 c 1.36058,0 3.17467,-0.94125 4.08172,-2.35313 0.90705,-1.41188 0.45353,-2.82376 0,-4.23563 z"
       id="path2-9"
       style="fill:#ff7455;fill-opacity:1;stroke-width:4.61996" />
    <rect
       style="fill:#272e98;fill-opacity:1;stroke-width:1.21854"
       id="rect1"
       width="81.742561"
       height="47.20792"
       x="23.103367"
       y="62.732677"
       ry="0.19988434" />
  </g>
  <g
     id="g2"
     transform="translate(-146.69306,13.623761)">
    <g
       id="g4"
       transform="matrix(0.77813502,0,0,0.73825505,179.93594,-20.419695)">
      <path
         d="M 113.38126,117.35446 H 23.490018 L 2.745878,136.23763 V 29.233009 c 0,-10.38574 9.33486,-18.883171 20.74414,-18.883171 h 89.891242 c 11.40928,0 20.74414,8.497431 20.74414,18.883171 v 69.23828 c 0,10.385741 -9.33486,18.883171 -20.74414,18.883171 z"
         fill="#009688"
         id="path1"
         style="stroke-width:0.154623" />
      <path
         d="m 69.702975,62.584822 m -10.37207,0 a 10.372068,9.4415839 0 1 0 20.74413,0 10.372068,9.4415839 0 1 0 -20.74413,0 z"
         fill="#ffffff"
         id="path2"
         style="stroke-width:0.154623" />
      <path
         d="m 104.27653,62.584822 m -10.372065,0 a 10.372068,9.4415839 0 1 0 20.744125,0 10.372068,9.4415839 0 1 0 -20.744125,0 z"
         fill="#ffffff"
         id="path3"
         style="stroke-width:0.154623" />
      <path
         d="m 35.129415,62.584822 m -10.37207,0 a 10.372068,9.4415839 0 1 0 20.74413,0 10.372068,9.4415839 0 1 0 -20.74413,0 z"
         fill="#ffffff"
         id="path4"
         style="stroke-width:0.154623" />
    </g>
  </g>
</svg>
